<?xml version="1.0" encoding="utf-8"?>
<!-- Generator: Adobe Illustrator 19.2.1, SVG Export Plug-In . SVG Version: 6.00 Build 0)  -->
<svg version="1.1" id="Layer_1" xmlns="http://www.w3.org/2000/svg" xmlns:xlink="http://www.w3.org/1999/xlink" x="0px" y="0px"
	 viewBox="0 0 511.7 375" style="enable-background:new 0 0 511.7 375;" xml:space="preserve">
<g>
	<path d="M171,138.4c-1.2,0.1-2.1,0.3-2.9,0.4c-18,2.1-35.3-0.6-52.2-6.9c-14.6-5.5-28-13.2-40.5-22.4c-0.8-0.6-1.6-1.2-2.4-1.8
		c-0.8-0.6-1-1.1-0.6-1.7c0.5-0.8,1.7-1.2,2.3-0.8c0.4,0.2,0.8,0.5,1.2,0.8c11,7.5,22.6,14,35,19c9.5,3.9,19.4,6.7,29.6,8.1
		c10.7,1.5,21.3,1.2,31.9-0.9c1.1-0.2,1.5-0.7,1.8-1.7c3.6-10,7.3-19.9,10.9-29.9c4.2-11.7,8.9-23.1,15.1-33.9
		c4.8-8.4,10.3-16.4,17.1-23.3c5.2-5.3,10.9-9.8,17.8-12.6c4.3-1.7,8.8-2.6,13.4-2.5c7.4,0.1,12.6,4.2,14.4,11.5
		c1,3.9,1,7.8,0.5,11.8c-1.3,10.4-5.2,19.9-10.3,28.9c-13.1,22.6-31.2,39.8-55.1,50.6c-4,1.8-8.3,3.1-12.5,4.6
		c-1,0.3-1.5,0.8-1.8,1.7c-4.1,10.5-8.6,20.9-13.7,31c-6.2,12.3-13.2,24.2-21.7,35.1c-7.6,9.7-16.1,18.4-26.1,25.6
		c-0.2,0.2-0.5,0.4-0.8,0.7c0.3,0.2,0.5,0.4,0.7,0.5c11.8,6.5,23,14.1,34.2,21.8c10,6.9,20,13.9,30.1,20.7c9,6,18.4,11.5,28.4,15.8
		c7.5,3.2,15.2,5.7,23.3,6.8c11.9,1.7,23.5,0.4,34.8-3.9c9.5-3.6,18.1-8.9,26.1-15.1c1.8-1.4,3.5-2.8,5.2-4.2c1.8,0.9,2.2,3,0.8,4.2
		c-13.3,11.6-28.2,19.9-45.8,22.9c-10.8,1.8-21.5,1.4-32.2-0.7c-13.5-2.6-26.1-7.5-38.4-13.5c-12.8-6.2-25.1-13.5-37.2-21.1
		c-12.4-7.8-24.8-15.6-37.1-23.4c-1.4-0.9-2.9-1.7-4.3-2.6c-0.8-0.5-1.5-0.5-2.4-0.1c-6.8,3.3-14,5.6-21.3,7.2
		c-8.6,1.8-17.2,2.7-25.9,2.3c-7-0.3-13.7-1.9-20-5.1c-3.5-1.8-6.7-4-9.1-7.2c-2.4-3.2-3.6-6.8-3.2-10.8c0.3-3.8,2.4-6.5,5.5-8.6
		c2.9-1.9,6.2-2.9,9.5-3.6c5.1-1,10.2-1.1,15.3-1c15.6,0.3,30.5,4,44.8,10.2c3.6,1.5,7.1,3.3,10.6,5c0.5,0.2,1,0.5,1.6,0.8
		c1.5-1.2,3.1-2.4,4.6-3.7c8.4-7.2,15.5-15.6,21.7-24.8c7.9-11.6,14.4-24.1,20.1-37c3.1-7,5.9-14.2,8.8-21.3
		C170.6,139.6,170.7,139.2,171,138.4z M187.1,127.9c0.7-0.2,1.1-0.4,1.6-0.6c6.1-2.5,11.8-5.5,17.2-9.2c17.5-12,30.4-27.8,39.3-46.9
		c3.7-8,6.5-16.3,7.2-25.3c0.3-3.4,0.1-6.7-1.4-9.9c-1.2-2.6-3.2-3.8-6.1-3.8c-2.8,0.1-5.4,0.7-7.9,1.9c-3.2,1.5-6.1,3.6-8.6,6
		c-4.8,4.6-8.7,10-12.1,15.7c-5.9,9.7-10.7,20.1-14.6,30.7c-4.9,13.4-9.6,26.8-14.3,40.2C187.3,127.1,187.2,127.4,187.1,127.9z
		 M103.2,234.3c-0.4-0.3-0.7-0.5-1-0.7c-6.5-3.7-13-7.1-19.9-10c-9.5-4-19.3-7.1-29.8-7.7c-3.2-0.2-6.4-0.1-9.5,0.9
		c-3.4,1.1-5.4,3.4-5.8,6.9c-0.5,4,0.7,7.5,3.5,10.4c1.6,1.7,3.6,3,5.7,4.1c5.6,2.7,11.5,3.9,17.6,4.2c4.5,0.2,9,0,13.4-0.6
		c8.5-1.1,16.6-3.3,24.4-6.9C102.3,234.8,102.7,234.5,103.2,234.3z"/>
	<path d="M429.7,185.7c1.7,0.9,1.9,1.2,0.9,2.6c-2.7,3.5-5.4,7.2-8.4,10.5c-8.9,10.2-18.8,19.5-29.7,27.4
		c-5.6,4.1-11.4,7.7-17.9,10.2c-4,1.5-8,2.6-12.3,2.5c-6-0.1-10.4-3-12.7-8.6c-1.9-4.7-2.2-9.7-1.8-14.7c0.4-5.6,1.9-11,3.7-16.3
		c0.1-0.4,0.2-0.7,0.3-1.1c0-0.1,0-0.2-0.1-0.4c-0.6,0.3-1.1,0.5-1.7,0.8c-2.4,1.2-4.9,2.2-7.6,2.5c-1.5,0.2-3,0.3-4.5,0.1
		c-2.9-0.4-5-2.2-6.4-4.8c-1.5-2.9-1.8-6-1.9-9.2c0-0.6,0-1.2,0-2c-0.4,0.4-0.6,0.6-0.8,0.8c-8.9,13-19,25.2-29.1,37.3
		c-5.2,6.2-10.3,12.4-15.5,18.6c-0.7,0.9-1.4,1.8-2,2.7c-0.3,0.5-0.6,0.8-1.3,0.7c-0.7-0.1-1-0.4-1.1-1c-0.7-2.6-1.5-5.1-2-7.7
		c-1.9-10-2.1-20.2-1.4-30.3c0.5-8.1,1.8-16.1,4.3-23.9c0.2-0.6,0.4-1.2,0.7-2.1c-8.9,6.5-17.8,11.9-29.2,12.1
		c-0.2,0.5-0.4,1-0.5,1.5c-3.3,10.2-7.8,19.8-14.1,28.4c-3.2,4.5-6.9,8.5-11.4,11.9c-3.8,2.8-8,4.9-12.8,5.5
		c-7,0.9-12.6-1.5-15.9-8.1c-1.6-3.2-2.5-6.7-2.7-10.3c-0.7-8.9,1.2-17.4,4.8-25.6c5.6-12.7,13.9-23.1,25.6-30.7
		c5-3.3,10.5-5.5,16.4-6.5c0.7-0.1,1.5-0.2,2.2-0.2c0.6,0,0.9,0.2,1,0.8c0.1,0.6-0.1,0.9-0.7,1.1c-0.2,0.1-0.4,0.1-0.6,0.2
		c-8.1,2.2-14.8,6.6-20.4,12.7c-8.6,9.2-13.9,20.1-16.4,32.4c-0.9,4.6-1.4,9.2-1,13.9c0.2,2.1,0.7,4.2,1.7,6.1c1.6,3,4,4.6,7.5,4.4
		c2.9-0.2,5.7-1,8.2-2.4c4.6-2.5,8.3-6.2,11.4-10.4c5.8-7.6,9.9-16,13.1-25c0-0.1,0-0.2,0-0.4c-0.1-0.1-0.3-0.2-0.5-0.3
		c-3.9-1.5-6.2-4.4-7.2-8.3c-1.1-4.3-1-8.6,0.5-12.8c0.5-1.3,1.2-2.6,2.1-3.7c1.7-2.1,4-3,6.7-2.6c2.1,0.3,3.5,1.4,4.6,3.2
		c1.3,2.2,1.8,4.6,1.9,7c0,3.9-0.6,7.8-1.4,11.6c-0.1,0.6-0.2,1.1-0.3,1.8c2.5,0.4,4.9,0.2,7.2-0.4c5.5-1.3,10.4-3.9,15-7
		c2.3-1.6,4.6-3.3,6.7-5.2c1.3-1.1,2.5-2.4,3.6-3.7c3.2-3.8,7.3-6.4,11.9-8.1c0.9,1.3,1,2.3,0.2,3.4c-0.5,0.7-1.1,1.3-1.6,2
		c-5.4,6.5-8.7,14-10.3,22.3c-2.1,10.3-2.2,20.7-0.6,31.1c0.3,1.7,0.8,3.4,1.2,5.1c0.1,0.6,0.4,1.1,0.7,1.8c0.6-0.6,1-1,1.4-1.4
		c11.6-12.1,22.8-24.7,32.6-38.3c3.1-4.2,5.8-8.7,8.6-13.1c0.4-0.7,0.7-1.6,0.9-2.4c1-3,2-6.1,3-9.1c0.5-1.4,1.4-2.5,2.6-3.4
		c2.8-2.2,6-3.5,9.2-4.7c0.8,1.2,0.9,2.5,0.1,3.6c-1,1.4-2.1,2.8-3.1,4.3c-2.9,4.3-5.3,8.7-6.9,13.7c-0.9,2.8-1.4,5.7-1.1,8.7
		c0.4,5.2,3.8,8.7,9.1,9c1.7,0.1,3.4-0.3,5.1-0.5c0.8-0.1,1.5-0.5,2.3-0.7c1.3-0.4,2.1-1.1,2.7-2.4c3.7-8.2,8.5-15.8,14.7-22.4
		c3.3-3.5,6.9-6.5,11.1-8.8c4.4-2.4,9-3.5,14-3c2.4,0.2,4.6,0.8,6.8,1.8c0.8,0.4,1.6,0.9,2.3,1.4c2.2,1.8,2.7,4,1.5,6.6
		c-1,2.2-2.6,3.9-4.4,5.4c-3.2,2.9-6.9,5.3-10.6,7.5c-8.3,4.9-16.9,8.9-25.8,12.5c-1.3,0.5-2,1.2-2.4,2.5
		c-2.1,5.6-3.7,11.3-4.1,17.2c-0.3,3.6,0,7.1,1,10.6c0.1,0.5,0.3,1,0.5,1.5c1.7,4.4,4.7,6.2,9.4,5.6c4.2-0.5,8.2-1.9,12.1-3.6
		c7.1-3.3,13.5-7.6,19.6-12.4c9.6-7.5,18.5-15.7,26.4-24.9C427.6,188.3,428.6,187,429.7,185.7z M364.9,188.8
		c0.1,0.1,0.2,0.2,0.3,0.3c2-0.9,4.1-1.8,6.1-2.7c5.6-2.6,11.1-5.4,16-9.1c2-1.5,3.8-3.3,5.6-5c1.1-1.1,1.9-2.6,2.3-4.2
		c0.3-1.2,0.1-2.3-0.5-3.4c-1.2-2-3.7-3.2-6-2.9c-1.8,0.2-3.4,1-4.9,1.9c-2.9,1.8-5.2,4.2-7.4,6.8c-4.1,4.8-7.4,10.2-10.3,15.8
		C365.7,187.2,365.3,188,364.9,188.8z M249.8,185.7c0.1-0.4,0.2-0.6,0.3-0.8c0.5-2.8,1.1-5.7,1.5-8.5c0.2-1.7-0.1-3.4-0.2-5.1
		c-0.1-0.8-0.5-1.6-1.4-1.7c-0.9-0.2-1.7,0.1-2.3,0.9c-0.5,0.6-0.9,1.4-1.1,2.1c-0.9,3-0.8,6,0.1,9
		C247.2,183.2,248.2,184.6,249.8,185.7z"/>
	<path d="M308.4,111.8c10.6,5.9,20.1,13.3,30,19.9c5.2,3.4,10.6,6.7,16.4,8.9c5.2,2,10.6,3.1,16.3,2.8c4.5-0.3,8.7-1.5,12.7-3.5
		c3.8-1.8,7.3-4.2,10.6-6.9c0.4-0.4,0.9-0.7,1.3-1.1c1,1.1,1,1.5,0.1,2.3c-5.7,5-12.2,8.7-19.6,10.3c-8,1.8-15.8,0.9-23.5-1.5
		c-6.4-2-12.5-4.7-18.3-8.1c-7-4.1-14-8.5-20.9-12.8c-3.4-2.1-6.7-4.1-10.1-6.3c-0.8-0.5-1.5-0.6-2.5-0.2c-6.6,3-13.6,4.3-20.8,4.3
		c-3.8,0-7.4-0.7-10.8-2.6c-1.3-0.7-2.6-1.6-3.6-2.6c-0.9-0.9-1.5-2.1-2-3.2c-1-3,0-5.5,2.7-7.1c1.8-1.1,3.9-1.5,6-1.7
		c6-0.7,11.8,0,17.6,1.4c4.7,1.2,9.2,3,13.6,5.1c0.5,0.3,1,0.5,1.6,0.8c2.2-1.6,4.2-3.5,6.1-5.4c4.2-4.4,7.6-9.4,10.5-14.7
		c3.8-6.8,6.9-13.9,9.7-21.1c0.1-0.2,0.1-0.5,0.2-0.9c-0.7,0.1-1.4,0.1-2,0.1c-9.1,1-17.8-0.7-26.1-4.1c-6.6-2.7-12.7-6.4-18.4-10.6
		c-0.2-0.2-0.5-0.4-0.7-0.6c0.6-1.1,0.8-1.2,1.5-0.7c0.6,0.3,1.1,0.7,1.6,1.1c7,4.6,14.5,8.4,22.7,10.7c7.1,1.9,14.2,2.4,21.4,1.2
		c1-0.2,1.6-0.6,1.9-1.6c1.9-5.3,3.8-10.6,5.8-16c2.8-7.7,6.4-15,11.5-21.6c2.1-2.8,4.5-5.3,7.4-7.3c2.8-1.9,5.8-3.3,9.2-3.5
		c1.3-0.1,2.7,0,3.9,0.3c3.2,0.9,4.5,3.4,4.8,6.5c0.4,3.2-0.2,6.4-1.2,9.5c-2.3,7.1-6.2,13.3-11.2,18.9c-6.7,7.5-14.8,13-24.5,16
		c-1,0.3-1.3,0.8-1.7,1.7c-3.1,7.8-6.5,15.3-10.8,22.5c-4.8,8-10.6,15.1-18.2,20.7C308.7,111.4,308.7,111.6,308.4,111.8z
		 M339.8,62.9c0.7-0.2,1-0.3,1.4-0.5c1.4-0.7,2.8-1.3,4.2-2.1c9.7-5.5,16.8-13.4,21.7-23.3c2.1-4.2,3.7-8.6,4-13.4
		c0.1-1.4-0.1-2.9-0.5-4.2c-0.4-1.6-1.5-2.1-3.2-2.1c-1.8,0-3.3,0.6-4.8,1.5c-2.1,1.3-3.9,3-5.4,5c-2.4,3-4.3,6.3-6.1,9.8
		c-3,5.9-5.3,12.1-7.4,18.4C342.5,55.5,341.2,59,339.8,62.9z M299.5,114c-0.4-0.3-0.7-0.5-1-0.7c-3-1.5-6-3.1-9-4.5
		c-3.9-1.8-8-3-12.3-3.5c-2-0.2-4.1-0.4-6,0.2c-2,0.5-3,1.9-3.1,4c-0.1,2.4,1.1,4.1,2.9,5.4c1.9,1.3,4,2,6.2,2.5
		c4.7,0.9,9.4,0.5,14-0.5C293.9,116.3,296.7,115.3,299.5,114z"/>
	<path d="M402.1,301c-0.4,0.4-0.8,0.8-1.2,1.2c-2.2,2-4.4,4-6.7,5.9c-1,0.8-2.2,1.4-3.4,2c-0.8,0.4-1.6,0.6-2.5,0.1
		c-0.3-1.4,0-2.7,0.4-3.9c1.1-3.1,2.3-6.2,3.5-9.3c0.2-0.6,0.5-1.1,0.6-1.8c-0.4,0.5-0.7,0.9-1.1,1.4c-2.8,3.8-5.6,7.7-9.1,11
		c-1,1-2.1,1.8-3.3,2.6c-2,1.2-3.5,0.6-4.3-1.5c-0.5-1.2-0.7-2.4-0.4-3.6c0.3-1.4,0.7-2.8,1-4.2c0.1-0.5,0.3-1,0.2-1.6
		c-0.4,0.4-0.8,0.8-1.2,1.2c-2.5,2.3-5,4.7-7.6,6.9c-1,0.9-2.3,1.6-3.5,2.3c-0.5,0.3-1.2,0.5-1.8,0.6c-1.1,0.2-1.6-0.1-1.5-1.2
		c0.1-1.1,0.2-2.1,0.6-3.1c0.8-2.3,1.8-4.6,2.7-6.8c0.2-0.4,0.4-0.8,0.3-1.4c-0.5,0.6-0.9,1.3-1.4,1.9c-2.3,2.7-4.5,5.4-6.9,8
		c-0.8,0.9-1.9,1.7-3,2.3c-2.3,1.3-4,0.6-4.8-2c-0.4-1.4-0.5-2.8-0.1-4.1c0.5-1.8,1.1-3.7,2-5.4c1.9-3.9,4.5-7.2,7.9-10
		c2.1-1.7,4.4-3,7.1-3.4c2.2-0.3,4.2,0.3,6,1.6c0.2,0.2,0.3,0.5,0.7,0.9c-0.5,0-0.8,0-0.9-0.1c-2.2-1.2-4.4-1-6.6-0.1
		c-1,0.4-1.9,1-2.8,1.6c-5,3.8-8.3,8.8-9.8,15c-0.2,0.9-0.2,1.8-0.2,2.7c0,0.9,0.6,1.3,1.4,0.9c0.8-0.3,1.5-0.8,2.1-1.4
		c1.8-1.7,3.5-3.4,5.1-5.3c2.8-3.2,5.4-6.6,8.1-9.9c0.3-0.4,0.6-0.7,1-1.1c0.2,0.2,0.4,0.3,0.5,0.5c1.3,1.2,1.3,1.2,0.3,2.5
		c-2.8,3.5-4.6,7.4-5.9,11.7c-0.2,0.5-0.2,1.1-0.2,1.7c0.8,0.5,1.5,0.2,2.1-0.1c1.3-0.7,2.6-1.5,3.8-2.4c2.7-2.3,5.2-4.8,7.7-7.2
		c0.4-0.4,0.7-1,1-1.6c0.7-1.4,1.4-2.8,2.1-4.1c1-1.7,2.5-2.9,4.3-3.6c0.5,0.6,0.2,1-0.1,1.5c-3.6,4.7-5.3,10.2-6.3,15.9
		c-0.1,0.4-0.1,0.9-0.1,1.3c0,0.7-0.2,1.6,0.6,2.1c0.8,0.5,1.5-0.2,2.1-0.7c0.7-0.6,1.4-1.1,2-1.8c2.5-2.8,4.9-5.6,7.3-8.5
		c1.8-2.1,3.4-4.4,5.1-6.6c0.3-0.4,0.7-0.8,1.1-1.3c0.3,0.2,0.5,0.4,0.6,0.6c1.2,1.2,1.2,1.5,0.2,2.8c-2.7,3.7-4.4,7.8-5.6,12.1
		c-0.2,0.6-0.2,1.3-0.3,2c0.9,0.5,1.5,0.2,2.1-0.1c1.2-0.7,2.4-1.3,3.4-2.2c2.5-2.2,5-4.5,7.4-6.8c0.5-0.4,0.8-1,1.1-1.5
		c2.2-3.2,4.7-6.1,8-8.2c2.1-1.4,4.4-2.3,7.1-2.1c1.6,0.1,3,0.7,4.3,1.6c0.2,0.1,0.3,0.3,0.4,0.5c0,0.1,0,0.2,0,0.4
		c-0.2,0-0.5,0-0.7-0.1c-2.3-1.3-4.6-1-6.9,0.1c-2,0.9-3.7,2.3-5.3,3.9c-3.3,3.4-5.8,7.4-6.9,12.1c-0.2,0.9-0.4,1.8-0.4,2.7
		c0,1.3,0.7,1.8,1.9,1.1c1-0.6,1.9-1.2,2.7-2c2.5-2.6,4.9-5.3,7.3-8.1c1.7-2,3.3-4.2,5-6.2c0.3-0.4,0.6-0.7,0.9-1.1
		c1.6,1.2,1.7,1.3,1,3.1c-1.9,4.8-3.9,9.5-5.8,14.2c-0.2,0.5-0.4,1-0.7,1.7c0.4-0.2,0.6-0.3,0.7-0.4c4.4-3.8,8.7-7.7,12.7-12
		c0.8-0.9,1.3-1.8,1.6-3c2-9.9,6-19.1,10.9-28c3.3-6,7-11.7,11.4-17c2-2.4,4.2-4.8,6.8-6.6c1.1-0.7,2.3-1.4,3.5-1.8
		c1.9-0.6,3.3,0.2,4.1,2.1c0.7,1.8,0.5,3.6,0.2,5.4c-0.5,3.3-1.8,6.4-3.3,9.3c-3,5.9-7,11.2-11.3,16.3c-5.4,6.5-11.4,12.6-17.4,18.6
		c-1.6,1.6-2.5,3.3-2.6,5.6c-0.1,2.7-0.4,5.3-0.7,8c0.1,0,0.2,0.1,0.3,0.1c0.3-0.4,0.5-0.8,0.8-1.3c2.1-3.2,4-6.6,6.2-9.7
		c1.4-1.9,3.1-3.7,4.8-5.3c0.9-0.8,2.2-1.4,3.4-1.7c1.5-0.5,2.4,0.2,2.5,1.8c0,1-0.1,2.2-0.4,3.2c-0.9,2.8-1.9,5.5-2.9,8.3
		c-0.5,1.3-0.9,2.7-1.4,4c0.1,0.1,0.2,0.2,0.3,0.3c0.4-0.2,0.8-0.3,1.2-0.5c1.4-1,2.8-2,4-3.2c2.3-2.2,4.6-4.5,6.8-6.7
		c0.3-0.3,0.6-0.6,1.2-1.1c0,0.5,0.2,0.8,0.1,0.9c-0.3,0.5-0.6,0.9-0.9,1.3c-3.6,4.4-7.7,8.5-12.1,12.1c-0.7,0.5-1.4,1-2.1,1.5
		c-0.5,0.3-1,0.5-1.5,0.7c-0.7-0.6-0.6-1.3-0.5-1.9c0.3-1.3,0.7-2.7,1.2-4c1.1-3.2,2.4-6.4,3.5-9.6c0.4-1.1,0.7-2.3,0.8-3.4
		c0.2-1.4-0.6-1.9-1.8-1.1c-1,0.7-2,1.5-2.7,2.5c-1.8,2.3-3.5,4.6-5,7c-2.3,3.8-4.5,7.6-6.7,11.5c-0.3,0.5-0.6,1-1.1,1.9
		c-0.2-0.7-0.4-1.1-0.4-1.5c0-3.7,0-7.5,0.1-11.2c0-0.9,0.1-1.8,0.2-3c-0.4,0.3-0.6,0.4-0.7,0.6c-4.4,5-9.3,9.5-14.2,13.9
		c-0.8,0.7-1.4,1.6-1.9,2.5c-4.4,9.7-9.1,19.2-14.8,28.2c-2.6,4.2-5.4,8.4-8.9,11.9c-1.5,1.5-3.1,2.8-4.8,3.9c-1,0.7-2.2,1-3.4,1.2
		c-2.1,0.3-3.4-0.9-3.7-3c-0.2-1.9,0-3.8,0.5-5.7c0.7-2.5,1.8-4.8,3.2-7c2.9-4.7,6.4-8.8,10.2-12.7c5.8-6,12-11.4,18.2-16.9
		c0.8-0.7,1.5-1.5,1.9-2.5c1.9-4.7,3.9-9.3,5.9-14c0.2-0.5,0.3-1,0.3-1.6c-0.3,0.4-0.6,0.8-0.9,1.2c-2.6,3.1-5.2,6.3-8,9.4
		c-1.1,1.2-2.5,2.2-3.9,3.1c-2.3,1.4-4,0.7-4.8-1.9c-0.5-1.5-0.4-3.1,0-4.6c0.2-0.8,0.5-1.6,0.7-2.4
		C402.2,301.1,402.2,301,402.1,301z M435.3,292.3c0.4-0.3,0.5-0.3,0.6-0.4c5.2-5.9,10.5-11.8,15.7-17.8c4.1-4.8,7.7-9.9,10.6-15.4
		c1.9-3.6,3.3-7.4,3.6-11.5c0.1-0.9,0-1.8-0.2-2.7c-0.4-1.4-1.6-2-2.9-1.4c-0.9,0.4-1.7,0.9-2.4,1.6c-1.5,1.6-3.1,3.1-4.4,4.9
		c-5.3,6.8-9.4,14.4-13.1,22.1c-2.9,6.1-5.5,12.4-7.1,19C435.5,291.1,435.4,291.6,435.3,292.3z M410.1,318.3c-0.1,0-0.2-0.1-0.3-0.1
		c-0.2,0.1-0.3,0.2-0.5,0.4c-5.1,5-10.2,10-15.2,15.1c-3.3,3.4-6.2,7.1-8.6,11.1c-1.2,2.1-2.3,4.2-2.9,6.6c-0.3,1.5-0.7,2.9-0.2,4.4
		c0.5,1.6,1.6,2.2,3.2,1.5c0.5-0.2,1-0.5,1.4-0.8c1.1-1,2.3-2,3.2-3.1c2-2.6,3.9-5.2,5.7-7.9c5.3-8.4,9.7-17.3,14-26.3
		C409.9,318.8,410,318.5,410.1,318.3z"/>
	<path d="M459.4,124.2c0.7-1.6,1.4-2.9,2-4.3c1.9-4.9,5.6-7.8,10.3-9.7c1.9-0.8,3.9-0.8,5.8-0.3c3.6,0.9,6,3.7,6.4,7.4
		c0.3,2.7-0.2,5.3-1.5,7.7c-1.4,2.7-3.4,5-5.9,6.7c-2.2,1.5-4.5,2.8-6.9,4.1c-1.7,1-3.5,1.8-5.3,2.7c-3.7,1.9-7.1,4.1-9.8,7.7
		c0-0.3-0.1-0.4-0.1-0.5c0-0.2,0.1-0.3,0.1-0.3c-4.4-5.3-8.8-10.6-13.1-15.9c-1.4-1.8-2.9-3.6-4.1-5.5c-1-1.6-1.8-3.4-2.4-5.2
		c-0.4-1.2-0.4-2.7-0.1-3.9c0.5-2.4,2.5-3.9,5.4-4.2c3.7-0.3,7.1,0.5,10.3,2.5c3.9,2.5,6.9,5.7,8.4,10.2
		C459.1,123.5,459.2,123.6,459.4,124.2z"/>
	<path d="M380.1,79.9c0.6,1,0.2,1.6-0.4,2.3c-2.9,3.4-4.6,7.3-5.4,11.6c-0.9,5.2-1,10.4,0.1,15.6c0.1,0.6,0.3,1.1,0.5,1.8
		c0.3-0.2,0.5-0.2,0.6-0.3c6.8-7,13.2-14.3,18.5-22.5c1-1.5,1.9-3,2.2-4.8c0.6-3.6,2.8-5.6,6.1-6.7c0.2,0,0.3-0.1,0.5-0.2
		c0,0,0.1,0,0.3,0c0.6,0.8,0.1,1.4-0.3,2.1c-1.2,1.8-2.4,3.7-3.4,5.6c-0.9,1.6-1.5,3.4-1.6,5.3c0,0.5,0,1,0,1.4
		c0.3,2.9,2.4,4.6,5.3,4.2c0.5-0.1,1.1-0.2,1.6-0.3c1.2-0.3,1.9-0.9,2.4-2c2-4.3,4.6-8.2,8-11.5c1.6-1.5,3.3-2.7,5.3-3.5
		c2.4-1,4.9-1.2,7.4-0.5c0.7,0.2,1.4,0.5,2,0.9c1.6,1,1.9,2.4,0.9,4c-0.5,0.8-1.2,1.7-2,2.3c-1.7,1.3-3.4,2.6-5.3,3.6
		c-3.7,2-7.5,3.8-11.4,5.5c-1.1,0.5-1.7,1.1-2.1,2.2c-1.1,3.2-1.9,6.5-1.6,9.9c0.1,1.3,0.4,2.5,0.8,3.7c0.7,1.9,2.2,2.6,4.2,2.4
		c2.5-0.3,4.9-1.2,7.1-2.4c3.2-1.6,6.1-3.7,8.9-5.9c4.7-3.8,9.1-7.9,12.9-12.6c0.1-0.2,0.2-0.4,0.3-0.5c0.8,0.2,1,0.5,0.7,1.1
		c-0.3,0.4-0.5,0.8-0.8,1.2c-5.6,7.2-12.1,13.5-19.7,18.6c-2.5,1.7-5.1,3.2-8,3.9c-1.5,0.4-3,0.6-4.6,0.6c-3,0-5-1.7-6-4.5
		c-1-2.7-1-5.5-0.5-8.2c0.3-1.8,0.9-3.6,1.3-5.4c0.1-0.4,0.2-0.8,0.4-1.4c-0.8,0.3-1.3,0.6-1.8,0.7c-1.3,0.3-2.6,0.7-3.9,0.8
		c-2.1,0.2-3.5-1-4.2-2.8c-0.4-0.9-0.5-2-0.7-3c-0.1-0.5-0.1-0.9-0.1-1.6c-0.3,0.3-0.5,0.4-0.6,0.5c-5.1,7.4-11,14.3-16.8,21.2
		c-1.7,2-3.3,4.1-5,6.1c-0.2,0.3-0.7,0.7-0.8,0.6c-0.3-0.2-0.7-0.5-0.8-0.9c-0.5-2.1-1-4.2-1.3-6.3c-0.6-5.1-0.6-10.1,0.2-15.2
		c0.1-0.5,0.1-1-0.2-1.7c-0.5,0.5-1,1.1-1.4,1.6c-4.8,5.4-9.8,10.5-15.5,14.8c-1.6,1.2-3.4,2.2-5.1,3.2c-0.8,0.5-1.8,0.7-2.7,0.9
		c-1.5,0.2-2.2-0.4-2.1-1.8c0-1.7,0.2-3.4,0.5-5.1c1-5.5,2.7-10.8,4.4-16c1.4-4,2.7-8,4-12c0.1-0.3,0.2-0.6,0.4-1.1
		c1,1,2,1.8,2.9,2.7c0.9,0.9,0.9,1.9,0.2,2.9c-4.2,6.2-6.2,13.2-7.5,20.4c-0.2,1-0.2,2-0.2,3c0,1.1,0.4,1.4,1.4,1.1
		c1.1-0.3,2.2-0.7,3.1-1.3c2.3-1.5,4.5-3.1,6.6-4.8c4-3.3,7.7-7,11.2-10.8c0.7-0.8,1.2-1.7,1.6-2.7c0.6-1.7,1.2-3.3,2-4.9
		C374.8,82.7,377.2,80.9,380.1,79.9z M412.1,91.9c0.2,0,0.3,0.1,0.4,0.1c4.1-1.7,8.1-3.6,11.5-6.5c0.8-0.7,1.4-1.5,1.9-2.3
		c0.6-0.8,0.7-1.8,0-2.7c-0.7-0.9-1.7-1.4-2.8-1.2c-0.9,0.2-1.7,0.6-2.5,1.1c-1.1,0.8-2.1,1.7-2.9,2.7c-2.2,2.4-3.9,5.2-5.4,8.1
		C412.3,91.4,412.2,91.7,412.1,91.9z"/>
	<path d="M463.3,189c0.3-0.8,0.5-1.2,0.6-1.6c0.9-2.5,2.3-4.6,4.2-6.4c0.9-0.8,1.9-1.5,3-2.1c2.4-1.2,4.6-0.8,6.5,1
		c2.5,2.4,3.8,5.3,4.2,8.7c0.1,1.2-0.1,2.4-0.8,3.4c-1,1.4-2,2.8-3.2,3.9c-1.4,1.3-2.9,2.5-4.5,3.6c-4.2,3.1-8.1,6.5-11.3,10.6
		c-0.1,0.1-0.2,0.1-0.3,0.2c-1.2-0.5-1.4-1.8-1.9-2.8c-0.1-0.2,0.3-0.7,0.6-1.3c-1-1.2-2.1-2.5-3.3-3.7c-1.8-1.7-3.6-3.3-5.5-4.9
		c-3.3-2.9-5.8-6.3-7.9-10c-0.8-1.4-1.4-3-1.7-4.6c-1.2-4.9,3.3-7.9,7-7.2c1.9,0.3,3.7,1.2,5.2,2.3c3.5,2.5,6.2,5.7,8.3,9.4
		C462.8,187.9,462.9,188.3,463.3,189z"/>
	<path d="M324.9,306.9c2.3-1.7,4.3-3.7,6.1-5.9c3.9-4.9,6.8-10.5,9.2-16.3c0.7-1.7,1.4-3.4,2.2-5.4c-12,1.4-21.9-3.1-31-9.9
		c0.2-0.7,0.6-0.8,1-0.6c0.4,0.2,0.8,0.5,1.2,0.8c4.9,3.2,10.1,5.8,15.8,7.2c4.1,1,8.2,1.2,12.4,0.6c1-0.1,1.6-0.5,1.9-1.5
		c1.2-3.5,2.5-7,3.8-10.5c1.7-4.6,3.9-9,6.8-13c1.5-2,3.1-3.8,5.1-5.3c2.2-1.6,4.6-2.6,7.4-2.5c2.2,0.1,3.7,1.2,4.3,3.4
		c0.6,2.1,0.3,4.1-0.2,6.2c-1.5,5.7-4.6,10.4-8.6,14.6c-4.2,4.4-9.1,7.6-14.9,9.4c-0.8,0.3-1.2,0.7-1.5,1.5c-1.7,4.4-3.7,8.6-6,12.7
		c-2.9,5.1-6.3,9.8-10.8,13.6c-0.7,0.6-1.5,1.2-2.3,1.9c0.5,0.3,0.9,0.6,1.3,0.8c4.5,3,9.1,6,13.6,9c4.1,2.8,8.2,5.6,12.7,7.8
		c3.3,1.6,6.7,2.8,10.4,3.1c4.6,0.4,8.8-0.7,12.8-2.9c1.9-1.1,3.6-2.4,5.4-3.7c0.4-0.3,0.8-0.5,1.1-0.8c0.6,0.4,0.6,0.9,0.3,1.3
		c-0.1,0.1-0.2,0.2-0.3,0.3c-6.5,5.6-14,8.2-22.7,6.9c-5.7-0.8-11-3-16-5.8c-5.1-2.9-10-6-15-9c-2.2-1.3-4.4-2.7-6.5-4.1
		c-0.8-0.5-1.4-0.5-2.2-0.1c-4.9,2.2-10.1,3-15.5,2.5c-2.3-0.2-4.4-0.9-6.3-2.3c-1.4-1-2.5-2.3-2.6-4.2c-0.1-1.6,0.7-2.8,2-3.5
		c1.5-0.8,3.1-1.1,4.8-1.2c6.7-0.4,13,1.2,19,4.1C323.8,306.4,324.4,306.6,324.9,306.9z M347.6,275.7c0.4-0.1,0.6-0.1,0.7-0.2
		c0.4-0.2,0.8-0.3,1.2-0.5c8.9-4.5,14.7-11.7,17.7-21.1c0.5-1.4,0.7-2.9,0.7-4.4c0.1-3.4-1.6-4.4-4.7-3c-1.9,0.8-3.3,2.2-4.4,3.8
		c-1.5,2.2-2.9,4.5-4.2,6.8c-2.6,5.1-4.3,10.6-6.2,16C348.2,273.9,348,274.7,347.6,275.7z M321,309.3c-3.9-2.2-7.7-4.1-11.9-5.1
		c-1.9-0.4-3.8-0.7-5.7-0.5c-2.7,0.3-3.8,2.6-2.4,4.9c0.4,0.6,1,1.2,1.7,1.6c0.9,0.5,1.8,0.9,2.8,1.2c2.8,0.8,5.6,0.7,8.4,0.2
		C316.3,311.2,318.6,310.5,321,309.3z"/>
	<path d="M418.1,262c-1.3-0.9-2.2-1.6-3.1-2.3c-4.9-3.7-8.6-8.4-11.4-13.8c-0.6-1.2-1-2.6-1.3-3.9c-0.4-1.6-0.1-3.1,0.6-4.5
		c1-2,2.7-2.7,4.8-1.8c2.3,0.9,4.1,2.4,5.6,4.4c1.1,1.5,2.4,2.8,3.6,4.4c0.7-1,1.2-1.9,1.8-2.7c2.7-3.8,6.4-5.7,11-5.7
		c3.4,0,5.5,2,5.6,5.4c0.1,2.8-0.6,5.3-2.2,7.5c-1.1,1.6-2.4,3-3.8,4.3c-2.3,2.1-4.7,4.1-7.1,6C420.9,260.3,419.4,261.1,418.1,262z"
		/>
	<path d="M355.9,68.3c0-2,1.6-3.8,3.7-3.9c1.6,0,2.6,0.9,2.6,2.5c0,1.8-1.7,3.8-3.4,4.1C357.1,71.4,355.9,70.2,355.9,68.3z"/>
</g>
</svg>
