<?xml version="1.0" encoding="utf-8"?>
<!-- Generator: Adobe Illustrator 17.0.0, SVG Export Plug-In . SVG Version: 6.00 Build 0)  -->
<!DOCTYPE svg PUBLIC "-//W3C//DTD SVG 1.1//EN" "http://www.w3.org/Graphics/SVG/1.1/DTD/svg11.dtd">
<svg version="1.1" id="Layer_1" xmlns="http://www.w3.org/2000/svg" xmlns:xlink="http://www.w3.org/1999/xlink" x="0px" y="0px"
	 width="50px" height="50px" viewBox="0 0 50 50" enable-background="new 0 0 50 50" xml:space="preserve">
<g>
	<path fill="#FFFFFF" d="M0.783,34.541c0.088-0.452,0.144-0.913,0.269-1.355c0.719-2.55,3.58-4.257,6.164-3.684
		c0.115,0.025,0.21,0.139,0.314,0.212c-0.064,0.06-0.117,0.149-0.193,0.176c-1.696,0.598-2.566,1.875-2.914,3.565
		c-0.476,2.315,1.406,6.302,4.032,7.17c1.499,0.496,2.99,0.388,4.47-0.048c1.636-0.482,3.083-1.328,4.419-2.376
		c0.043-0.034,0.105-0.044,0.103-0.043c-0.983,0-1.959,0.049-2.927-0.018c-0.604-0.042-1.211-0.214-1.79-0.409
		c-0.507-0.171-0.869-0.558-1.054-1.08c-0.234-0.66-0.08-1.241,0.44-1.717c0.728-0.665,1.618-0.998,2.567-1.033
		c1.44-0.053,2.886-0.009,4.327,0.046c0.446,0.017,0.759-0.018,0.999-0.448c0.745-1.333,1.612-2.606,2.249-3.986
		c0.282-0.61,0.218-1.431,0.15-2.14c-0.186-1.917-0.92-3.634-2.147-5.123c-1.597-1.939-3.832-2.383-5.912-1.647
		c-1.55,0.548-2.921,1.434-4.248,2.389c-0.102,0.074-0.205,0.147-0.31,0.217c-0.021,0.014-0.052,0.014-0.115,0.029
		c-0.149-0.269-0.304-0.546-0.484-0.871c0.817-0.565,1.616-1.128,2.425-1.676c1.849-1.25,3.697-2.503,5.337-4.029
		c1.452-1.35,2.701-2.842,3.425-4.728c1.492-3.889-1.064-8.069-3.431-9.32c-1.167-0.617-2.365-0.815-3.61-0.365
		c-2.571,0.931-4.395,2.619-5.093,5.331c-0.552,2.146,0.372,4.344,2.225,5.509c0.826,0.519,1.672,0.594,2.558,0.17
		c0.692-0.332,1.313-0.753,1.778-1.377c0.055-0.075,0.123-0.14,0.315-0.207c0.043,0.405,0.16,0.819,0.115,1.215
		c-0.245,2.17-2.759,4.025-4.902,3.614c-1.241-0.238-2.164-0.972-2.797-2.053c-1.21-2.065-1.217-4.258-0.548-6.47
		c0.885-2.924,2.769-5.058,5.41-6.546c1.459-0.822,2.995-1.406,4.698-1.431c2.805-0.042,4.763,1.315,6.089,3.704
		c1.082,1.95,1.011,3.945,0.218,5.964c-0.801,2.038-2.114,3.735-3.648,5.252c-1.135,1.123-2.376,2.139-3.57,3.202
		c-0.1,0.089-0.205,0.173-0.295,0.287c1.179-0.352,2.379-0.221,3.563-0.193c1.934,0.046,3.449,0.965,4.519,2.535
		c0.502,0.737,1.23,0.956,1.994,1.303c0.388-0.796,0.756-1.563,1.134-2.325c0.907-1.829,1.945-3.573,3.342-5.08
		c1.24-1.337,2.788-2.065,4.586-2.227c2.036-0.183,3.539,1.147,3.669,3.183c0.164,2.573-0.981,4.494-3.018,5.933
		c-2.117,1.496-4.483,2.293-7.086,2.313c-0.354,0.003-0.508,0.132-0.655,0.434c-1.217,2.509-2.429,5.02-3.695,7.505
		c-0.462,0.906-1.064,1.741-1.623,2.643c0.301,0.079,0.623,0.147,0.933,0.249c2.37,0.775,4.741,1.547,7.106,2.338
		c2.478,0.83,4.992,1.529,7.586,1.851c2.937,0.364,5.88,0.483,8.754-0.452c0.596-0.194,1.167-0.471,1.739-0.732
		c0.363-0.166,0.702-0.377,0.706-0.842c0.472,0.053,0.693,0.351,0.461,0.718c-0.324,0.511-0.702,1.02-1.162,1.404
		c-0.884,0.737-1.968,1.126-3.056,1.46c-5.196,1.595-10.3,1.258-15.3-0.807c-2.189-0.904-4.344-1.891-6.524-2.816
		c-0.708-0.3-1.452-0.513-2.173-0.785c-0.306-0.115-0.497-0.043-0.729,0.192c-2.181,2.215-4.652,4.025-7.595,5.081
		c-1.123,0.403-2.334,0.562-3.505,0.833c-0.106,0.025-0.212,0.054-0.318,0.082c-0.506,0-1.011,0-1.517,0
		c-0.342-0.058-0.683-0.12-1.026-0.174c-3.043-0.478-5.284-2.53-5.999-5.505c-0.091-0.378-0.148-0.763-0.221-1.145
		C0.783,35.102,0.783,34.822,0.783,34.541z M28.687,22.708c0.861,0.114,1.625,0.032,2.343-0.252c2.567-1.016,4.39-2.86,5.665-5.263
		c0.249-0.47,0.39-1.028,0.454-1.56c0.15-1.243-0.803-2.111-2.012-1.817c-0.515,0.125-1.019,0.395-1.462,0.696
		c-0.85,0.576-1.474,1.388-1.964,2.276c-0.69,1.25-1.317,2.536-1.966,3.809C29.401,21.268,29.068,21.946,28.687,22.708z
		 M18.823,35.388c-0.16-0.058-0.209-0.085-0.26-0.092c-0.858-0.122-1.712-0.3-2.574-0.345c-0.687-0.036-1.395,0.028-2.069,0.164
		c-0.622,0.125-0.884,0.543-0.84,1.036c0.046,0.511,0.4,0.857,1.023,0.932c1.48,0.179,2.826-0.221,4.057-1.024
		C18.394,35.906,18.565,35.653,18.823,35.388z"/>
</g>
</svg>
